<svg width="46" height="46" viewBox="0 0 46 46" fill="none" xmlns="http://www.w3.org/2000/svg"><path d="M23 43C34.0457 43 43 34.0457 43 23C43 11.9543 34.0457 3 23 3C11.9543 3 3 11.9543 3 23C3 34.0457 11.9543 43 23 43Z" fill="#F3BA2F"></path><path d="M17.174 20.606L23 14.78L28.8289 20.6091L32.2191 17.2189L23 8L13.784 17.216L17.174 20.606ZM8 23L11.39 19.61L14.78 23L11.39 26.39L8 23ZM17.174 25.394L23 31.22L28.8289 25.3909L32.2191 28.7795L23 38L13.784 28.784L13.7795 28.7795L17.174 25.394ZM31.22 23L34.61 19.61L38 23L34.61 26.39L31.22 23ZM26.438 22.9971H26.4411V23L23 26.4411L19.5635 23.006L19.5575 23L19.5635 22.9955L20.1649 22.3925L20.4575 22.1L23 19.5591L26.4395 22.9985L26.438 22.9971Z" fill="white"></path></svg>