<svg width="51.78" height="51.78" xmlns="http://www.w3.org/2000/svg" data-name="Layer 1">
  <path class="cls-1" d="M11.54 4.31A25.74 25.74 0 0 1 24.86-.03v10.34a15.32 15.32 0 0 0-7.25 2.39l-6.07-8.39zM1.61 16.9A25.88 25.88 0 0 1 9.86 5.55l6.06 8.36a15.81 15.81 0 0 0-4.48 6.17L1.61 16.9zm-.65 16a26.07 26.07 0 0 1 0-14l9.84 3.2a15.36 15.36 0 0 0 0 7.62L.96 32.9zm8.9 13.33A25.88 25.88 0 0 1 1.61 34.9l9.82-3.2a15.81 15.81 0 0 0 4.49 6.17l-6.06 8.36zm15 5.55a25.64 25.64 0 0 1-13.32-4.33l6.07-8.36a15.21 15.21 0 0 0 7.25 2.35v10.34zm15.4-4.35a25.66 25.66 0 0 1-13.31 4.35V41.42a15.17 15.17 0 0 0 7.24-2.35l6.07 8.36zm9.93-12.55a25.8 25.8 0 0 1-8.25 11.35l-6.06-8.36a15.81 15.81 0 0 0 4.49-6.17l9.82 3.18zm.63-16a26.07 26.07 0 0 1 0 14L41 29.68a15.36 15.36 0 0 0 0-7.62l9.82-3.18zM41.94 5.55a25.82 25.82 0 0 1 8.25 11.33l-9.82 3.2a15.81 15.81 0 0 0-4.49-6.17l6.06-8.36zM26.95 0a25.64 25.64 0 0 1 13.31 4.31l-6.07 8.39a15.28 15.28 0 0 0-7.24-2.39V0z" fill-rule="evenodd" fill="#fff"/>
</svg>
